<svg width="203" height="27" viewBox="0 0 203 27" fill="none" xmlns="http://www.w3.org/2000/svg">
<path d="M16.32 21.52L16.64 21.96L16.28 26H0.119995L0.399995 18.32L0.119995 0.23999H16.44L16.76 0.679992L16.36 4.71999L10.2 4.51999L5.56 4.55999L5.44 10.76L9.88 10.84L14.08 10.72L14.4 11.12L14.04 15.16L9.48 15.04L5.36 15.08L5.32 17.84L5.44 21.72L9.96 21.76L16.32 21.52Z" fill="black"/>
<path d="M38.3516 19.6L38.5516 26H33.0716L24.9916 13.48H24.7116L24.6716 18.92L24.8316 26H20.2716L20.4716 20.08L20.2716 5.79999H25.7116L33.7916 18.32H34.1516L33.9916 5.99999L38.6316 5.67999L38.3516 19.6Z" fill="black"/>
<path d="M53.8206 5.51999C56.0606 5.51999 58.1673 5.89332 60.1406 6.63999L58.8206 11.2H58.3806C57.3406 10.6133 56.4073 10.2 55.5806 9.95999C54.7806 9.71999 53.8873 9.59999 52.9006 9.59999C51.0606 9.59999 49.7273 10.0933 48.9006 11.08C48.1006 12.04 47.7006 13.72 47.7006 16.12C47.7006 17.72 47.874 18.9733 48.2206 19.88C48.5673 20.7867 49.114 21.44 49.8606 21.84C50.634 22.2133 51.674 22.4 52.9806 22.4C53.7806 22.4 54.6206 22.24 55.5006 21.92V20.64L55.4606 17.44L60.0606 17.12L59.9806 19.8V25C57.3673 25.88 54.914 26.32 52.6206 26.32C49.2606 26.32 46.7273 25.4667 45.0206 23.76C43.314 22.0267 42.4606 19.56 42.4606 16.36C42.4606 12.84 43.4473 10.16 45.4206 8.31999C47.394 6.45332 50.194 5.51999 53.8206 5.51999Z" fill="black"/>
<path d="M66.6019 20.6C67.4285 20.6 68.0685 20.84 68.5219 21.32C69.0019 21.8 69.2419 22.4667 69.2419 23.32C69.2419 24.2267 68.9885 24.9467 68.4819 25.48C67.9752 26.0133 67.2819 26.28 66.4019 26.28C65.5219 26.28 64.8419 26.04 64.3619 25.56C63.9085 25.08 63.6819 24.4 63.6819 23.52C63.6819 22.64 63.9352 21.9333 64.4419 21.4C64.9752 20.8667 65.6952 20.6 66.6019 20.6Z" fill="black"/>
<path d="M107.077 26H102.277L101.877 18.2L100.957 8.27999H100.557L94.7972 23.28H90.5972L85.3572 8.27999H84.9972L83.9972 17.68L83.4372 26H78.8772L81.4772 0.23999H87.7172L88.7572 4.03999L92.8372 16.24H93.1972L97.4772 4.03999L98.6372 0.23999H104.757L107.077 26Z" fill="black"/>
<path d="M129.152 26H124.072L123.512 23.08L123.152 21.92L119.072 21.88L115.472 21.96L115.192 22.8L114.592 26H109.672L116.752 5.79999H122.712L129.152 26ZM122.072 18.12L119.792 10.4H119.472L116.792 18.12L119.392 18.16L122.072 18.12Z" fill="black"/>
<path d="M145.053 6.19999L144.773 10.04L140.693 9.75999H139.533L139.413 19.52L139.573 26H134.573L134.773 20L134.693 9.75999H133.533L129.373 10.04L129.053 9.63999L129.333 5.79999H144.773L145.053 6.19999Z" fill="black"/>
<path d="M162.628 21.92L162.948 22.24L162.588 26H148.748L148.948 20L148.748 5.79999H162.788L163.068 6.19999L162.748 9.91999L157.548 9.71999H153.788L153.708 13.8L157.308 13.84L160.788 13.72L161.068 14.08L160.748 17.88L156.948 17.76H153.628L153.588 19.52L153.668 22.08H157.188L162.628 21.92Z" fill="black"/>
<path d="M183.83 16.08L183.79 19.16C183.817 21.4533 183.057 23.2267 181.51 24.48C179.99 25.7067 177.804 26.32 174.95 26.32C172.177 26.32 170.057 25.7067 168.59 24.48C167.124 23.2267 166.43 21.4533 166.51 19.16L166.55 16L166.43 5.79999H171.47L171.23 18.44C171.204 19.7467 171.51 20.7067 172.15 21.32C172.817 21.9333 173.817 22.24 175.15 22.24C176.51 22.24 177.51 21.9333 178.15 21.32C178.817 20.68 179.137 19.72 179.11 18.44L178.91 5.79999H183.99L183.83 16.08Z" fill="black"/>
<path d="M196.416 5.51999C198.336 5.51999 200.176 5.85333 201.936 6.51999L201.176 11L200.456 11.2C199.603 10.56 198.776 10.08 197.976 9.75999C197.176 9.43999 196.443 9.27999 195.776 9.27999C195.029 9.27999 194.443 9.46666 194.016 9.83999C193.589 10.1867 193.376 10.6133 193.376 11.12C193.376 11.68 193.643 12.1467 194.176 12.52C194.709 12.8667 195.549 13.28 196.696 13.76C197.896 14.2667 198.869 14.7333 199.616 15.16C200.389 15.5867 201.043 16.1867 201.576 16.96C202.136 17.7067 202.416 18.6533 202.416 19.8C202.416 20.9467 202.109 22.0267 201.496 23.04C200.909 24.0267 200.003 24.8267 198.776 25.44C197.576 26.0533 196.083 26.36 194.296 26.36C193.336 26.36 192.283 26.2533 191.136 26.04C190.016 25.8533 188.923 25.5467 187.856 25.12L188.536 20.4L189.056 20.04C189.936 20.84 190.923 21.48 192.016 21.96C193.109 22.44 194.083 22.68 194.936 22.68C195.683 22.68 196.283 22.4933 196.736 22.12C197.216 21.7467 197.456 21.28 197.456 20.72C197.456 20.1333 197.176 19.6667 196.616 19.32C196.083 18.9467 195.243 18.5333 194.096 18.08C192.896 17.5733 191.909 17.1067 191.136 16.68C190.389 16.2267 189.736 15.6133 189.176 14.84C188.643 14.0667 188.376 13.1067 188.376 11.96C188.376 10.76 188.696 9.66666 189.336 8.67999C190.003 7.69332 190.936 6.91999 192.136 6.35999C193.363 5.79999 194.789 5.51999 196.416 5.51999Z" fill="black"/>
</svg>
